<svg xmlns="http://www.w3.org/2000/svg" viewBox="0 0 34 27"><path fill="#FFF" d="M34 3.2c-1.3.5-2.6.9-4 1.1 1.4-.8 2.5-2.2 3.1-3.8-1.3.8-2.8 1.3-4.4 1.7C27.4.8 25.5 0 23.5 0c-3.9 0-7 3.1-7 6.8 0 .5.1 1.1.2 1.6-5.8-.3-10.9-3-14.4-7.1-.6 1-.9 2.2-.9 3.4 0 2.4 1.2 4.5 3.1 5.7-1.1 0-2.2-.3-3.2-.9v.1c0 3.3 2.4 6.1 5.6 6.7-.6.2-1.2.2-1.8.2-.4 0-.9 0-1.3-.1.9 2.7 3.5 4.7 6.5 4.7C7.9 22.9 4.9 24 1.7 24c-.6 0-1.1 0-1.7-.1 3.1 2 6.8 3.1 10.7 3.1 12.8 0 19.8-10.4 19.8-19.4v-.9c1.4-.9 2.6-2.1 3.5-3.5z"/></svg>