<svg xmlns="http://www.w3.org/2000/svg" viewBox="0 0 41 33"><g fill="#FFF"><path d="M17.2 30.6c-6.8.7-12.6-2.4-13.1-6.8-.4-4.4 4.7-8.6 11.5-9.2 6.8-.7 12.6 2.4 13.1 6.8s-4.7 8.5-11.5 9.2m13.6-14.7c-.6-.2-1-.3-.7-1 .7-1.6.7-3 0-4.1-1.3-1.9-5-1.8-9.1-.1 0 0-1.3.6-1-.5.6-2.1.5-3.8-.5-4.8-2.3-2.3-8.3.1-13.5 5.2-3.8 4-6 8-6 11.6C0 28.9 8.7 33 17.2 33c11.2 0 18.6-6.4 18.6-11.5 0-3.1-2.6-4.9-5-5.6M38.2 3.6C35.5.6 31.5-.5 27.9.3c-.8.2-1.4 1-1.2 1.9.2.8 1 1.4 1.9 1.2 2.6-.6 5.4.3 7.3 2.4s2.4 5 1.6 7.5c-.3.8.2 1.7 1 2s1.7-.2 2-1c1.1-3.7.4-7.8-2.3-10.7"/><path d="M34.1 7.3c-1.3-1.4-3.2-2-5-1.6-.7.2-1.2.9-1 1.6s.9 1.2 1.6 1c.9-.2 1.8.1 2.5.8.6.7.8 1.7.5 2.5-.2.7.2 1.5.9 1.7s1.5-.2 1.7-.9c.4-1.7.1-3.7-1.2-5.1M17.6 22.6c-.2.4-.8.6-1.2.4-.4-.2-.5-.6-.3-1s.7-.6 1.1-.4c.5.1.6.6.4 1m-2.2 2.7c-.7 1-2.1 1.5-3.1 1s-1.4-1.7-.7-2.7c.6-1 2-1.5 3.1-1 1 .5 1.4 1.7.7 2.7m2.5-7.3c-3.2-.8-6.9.8-8.3 3.6-1.4 2.9 0 6.1 3.2 7.1 3.4 1.1 7.4-.6 8.8-3.7 1.4-3-.4-6.2-3.7-7"/></g></svg>